# xmcd CD database file
#
# Track frame offsets:
#	150
#	12327
#	27295
#	36440
#	50257
#	68335
#	84795
#	92775
#	107882
#	118872
#	130852
#	148250
#	167597
#	181180
#	199755
#	216305
#
# Disc length: 3147 seconds
#
# Revision: 7
# Processed by: cddbd v1.5.2PL0 Copyright (c) Steve Scherf et al.
# Submitted via: CDex 1.70beta2
#
DISCID=db0c4910
DTITLE=The Kinks - Kinks Part One Lola Versus Powerman and The Moneygoround
DYEAR=1970
DGENRE=Rock
TTITLE0=The Contenders
TTITLE1=Strangers
TTITLE2=Denmark Street
TTITLE3=Get Back In Line
TTITLE4=Lola
TTITLE5=Top Of The Pops
TTITLE6=The Moneygoround
TTITLE7=This Time Tomorrow
TTITLE8=A Long Way From Home
TTITLE9=Rats
TTITLE10=Apeman
TTITLE11=Powerman
TTITLE12=Got To Be Free
TTITLE13=Lola [45rpm]
TTITLE14=Apeman [Demo]
TTITLE15=Powerman [Demo]
EXTD=YEAR: 1970
EXTT0=
EXTT1=
EXTT2=
EXTT3=
EXTT4=
EXTT5=
EXTT6=
EXTT7=
EXTT8=
EXTT9=
EXTT10=
EXTT11=
EXTT12=
EXTT13=
EXTT14=
EXTT15=
PLAYORDER=
